<mxfile host="app.diagrams.net" modified="2024-01-29T17:43:52.658Z" agent="Mozilla/5.0 (Macintosh; Intel Mac OS X 10_15_7) AppleWebKit/537.36 (KHTML, like Gecko) Chrome/120.0.0.0 Safari/537.36" etag="VA-zPwCAeia3x-MJBqgR" version="23.0.2" type="device">
  <diagram name="ページ1" id="QU4yJrqzXSqC8Tur1twz">
    <mxGraphModel dx="1336" dy="689" grid="1" gridSize="10" guides="1" tooltips="1" connect="1" arrows="1" fold="1" page="1" pageScale="1" pageWidth="827" pageHeight="1169" math="0" shadow="0">
      <root>
        <mxCell id="0" />
        <mxCell id="1" parent="0" />
        <mxCell id="hTDBvnxvtVP5g7cgl2-N-1" value="" style="strokeColor=#dddddd;shadow=1;strokeWidth=1;rounded=1;absoluteArcSize=1;arcSize=2;" vertex="1" parent="1">
          <mxGeometry x="290" y="470" width="130" height="60" as="geometry" />
        </mxCell>
        <mxCell id="hTDBvnxvtVP5g7cgl2-N-2" value="Cloud&#xa;Functions" style="editableCssRules=.*;html=1;fontColor=#999999;shape=image;verticalLabelPosition=middle;verticalAlign=middle;labelPosition=right;align=left;spacingLeft=20;part=1;points=[];imageAspect=0;image=data:image/svg+xml,PHN2ZyB4bWxucz0iaHR0cDovL3d3dy53My5vcmcvMjAwMC9zdmciIHhtbG5zOnY9Imh0dHBzOi8vdmVjdGEuaW8vbmFubyIgd2lkdGg9IjIwIiBoZWlnaHQ9IjE5Ljk4OTk5OTc3MTExODE2NCIgdmlld0JveD0iMCAwIDIwIDE5Ljk4OTk5OTc3MTExODE2NCI+JiN4YTsJPHN0eWxlIHR5cGU9InRleHQvY3NzIj4mI3hhOwkuc3Qwe2ZpbGw6IzQyODVmNDt9JiN4YTsJLnN0MXtmaWxsOiM2NjlkZjY7fSYjeGE7CS5zdDJ7ZmlsbDojYWVjYmZhO30mI3hhOwk8L3N0eWxlPiYjeGE7CTxwYXRoIGNsYXNzPSJzdDEiIGQ9Ik0zIDMuOTlMMCA2LjQydjcuMTNsMyAyLjQ0eiIvPiYjeGE7CTxwYXRoIGNsYXNzPSJzdDAiIGQ9Ik0zIDMuOTlsLTMgNCAzLTJ6bS0zIDhsMyA0di0yeiIvPiYjeGE7CTxwYXRoIGNsYXNzPSJzdDIiIGQ9Ik0wIDE1Ljk5bDQgNCAyLTItNi02em0uMDEtOEw1Ljk5IDJsLTItMkwwIDMuOTl6Ii8+JiN4YTsJPHBhdGggY2xhc3M9InN0MSIgZD0iTTE3IDE2bDMtMi40MlY2LjQ0TDE3IDR6Ii8+JiN4YTsJPHBhdGggY2xhc3M9InN0MCIgZD0iTTE3IDE2bDMtNC0zIDJ6bTMtOGwtMy00djJ6Ii8+JiN4YTsJPGcgY2xhc3M9InN0MiI+JiN4YTsJCTxwYXRoIGQ9Ik0yMCA0bC00LTQtMiAyIDYgNnptLS4wMSA4bC01Ljk4IDUuOTkgMiAyTDIwIDE2eiIvPiYjeGE7CQk8Y2lyY2xlIGN4PSI2IiBjeT0iOS45OSIgcj0iMSIvPiYjeGE7CQk8Y2lyY2xlIGN4PSIxMCIgY3k9IjkuOTkiIHI9IjEiLz4mI3hhOwkJPGNpcmNsZSBjeD0iMTMuOTkiIGN5PSI5Ljk5IiByPSIxIi8+JiN4YTsJPC9nPiYjeGE7PC9zdmc+;" vertex="1" parent="hTDBvnxvtVP5g7cgl2-N-1">
          <mxGeometry width="30" height="24" relative="1" as="geometry">
            <mxPoint x="15" y="18" as="offset" />
          </mxGeometry>
        </mxCell>
        <mxCell id="hTDBvnxvtVP5g7cgl2-N-3" value="Actor" style="shape=umlActor;verticalLabelPosition=bottom;verticalAlign=top;html=1;outlineConnect=0;" vertex="1" parent="1">
          <mxGeometry x="194" y="120" width="30" height="60" as="geometry" />
        </mxCell>
        <mxCell id="hTDBvnxvtVP5g7cgl2-N-4" value="" style="strokeColor=#dddddd;shadow=1;strokeWidth=1;rounded=1;absoluteArcSize=1;arcSize=2;" vertex="1" parent="1">
          <mxGeometry x="140" y="270" width="150" height="60" as="geometry" />
        </mxCell>
        <mxCell id="hTDBvnxvtVP5g7cgl2-N-5" value="&lt;font color=&quot;#000000&quot;&gt;Bucket A&lt;/font&gt;&lt;br&gt;Cloud Storage" style="editableCssRules=.*;html=1;fontColor=#999999;shape=image;verticalLabelPosition=middle;verticalAlign=middle;labelPosition=right;align=left;spacingLeft=20;part=1;points=[];imageAspect=0;image=data:image/svg+xml,PHN2ZyB4bWxucz0iaHR0cDovL3d3dy53My5vcmcvMjAwMC9zdmciIHhtbG5zOnY9Imh0dHBzOi8vdmVjdGEuaW8vbmFubyIgd2lkdGg9IjIwIiBoZWlnaHQ9IjE2IiB2aWV3Qm94PSIwIDAgMjAgMTYiPiYjeGE7CTxzdHlsZSB0eXBlPSJ0ZXh0L2NzcyI+JiN4YTsJLnN0MHtmaWxsOiM0Mjg1ZjQ7fSYjeGE7CS5zdDF7ZmlsbDojNjY5ZGY2O30mI3hhOwkuc3Qye2ZpbGw6I2FlY2JmYTt9JiN4YTsJLnN0M3tmaWxsOiNmZmY7fSYjeGE7CTwvc3R5bGU+JiN4YTsJPHBhdGggY2xhc3M9InN0MiIgZD0iTTAgMGgyMHY3SDB6Ii8+JiN4YTsJPHBhdGggY2xhc3M9InN0MSIgZD0iTTE4IDBoMnY3aC0yeiIvPiYjeGE7CTxwYXRoIGNsYXNzPSJzdDAiIGQ9Ik0xOCA3bDItN2gtMnoiLz4mI3hhOwk8cGF0aCBjbGFzcz0ic3QxIiBkPSJNMCAwaDJ2N0gweiIvPiYjeGE7CTxnIGNsYXNzPSJzdDMiPiYjeGE7CQk8cGF0aCBkPSJNNCAzaDZ2MUg0eiIvPiYjeGE7CQk8cmVjdCB4PSIxMyIgeT0iMiIgd2lkdGg9IjMiIGhlaWdodD0iMyIgcng9IjEuNSIvPiYjeGE7CTwvZz4mI3hhOwk8cGF0aCBjbGFzcz0ic3QyIiBkPSJNMCA5aDIwdjdIMHoiLz4mI3hhOwk8cGF0aCBjbGFzcz0ic3QxIiBkPSJNMTggOWgydjdoLTJ6Ii8+JiN4YTsJPHBhdGggY2xhc3M9InN0MCIgZD0iTTE4IDE2bDItN2gtMnoiLz4mI3hhOwk8cGF0aCBjbGFzcz0ic3QxIiBkPSJNMCA5aDJ2N0gweiIvPiYjeGE7CTxnIGNsYXNzPSJzdDMiPiYjeGE7CQk8cGF0aCBkPSJNNCAxMmg2djFINHoiLz4mI3hhOwkJPHJlY3QgeD0iMTMiIHk9IjExIiB3aWR0aD0iMyIgaGVpZ2h0PSIzIiByeD0iMS41Ii8+JiN4YTsJPC9nPiYjeGE7PC9zdmc+;" vertex="1" parent="hTDBvnxvtVP5g7cgl2-N-4">
          <mxGeometry width="30" height="24" relative="1" as="geometry">
            <mxPoint x="15" y="18" as="offset" />
          </mxGeometry>
        </mxCell>
        <mxCell id="hTDBvnxvtVP5g7cgl2-N-6" value="" style="strokeColor=#dddddd;shadow=1;strokeWidth=1;rounded=1;absoluteArcSize=1;arcSize=2;" vertex="1" parent="1">
          <mxGeometry x="414" y="270" width="150" height="60" as="geometry" />
        </mxCell>
        <mxCell id="hTDBvnxvtVP5g7cgl2-N-7" value="&lt;font color=&quot;#000000&quot;&gt;Bucket B&lt;/font&gt;&lt;br&gt;Cloud Storage" style="editableCssRules=.*;html=1;fontColor=#999999;shape=image;verticalLabelPosition=middle;verticalAlign=middle;labelPosition=right;align=left;spacingLeft=20;part=1;points=[];imageAspect=0;image=data:image/svg+xml,PHN2ZyB4bWxucz0iaHR0cDovL3d3dy53My5vcmcvMjAwMC9zdmciIHhtbG5zOnY9Imh0dHBzOi8vdmVjdGEuaW8vbmFubyIgd2lkdGg9IjIwIiBoZWlnaHQ9IjE2IiB2aWV3Qm94PSIwIDAgMjAgMTYiPiYjeGE7CTxzdHlsZSB0eXBlPSJ0ZXh0L2NzcyI+JiN4YTsJLnN0MHtmaWxsOiM0Mjg1ZjQ7fSYjeGE7CS5zdDF7ZmlsbDojNjY5ZGY2O30mI3hhOwkuc3Qye2ZpbGw6I2FlY2JmYTt9JiN4YTsJLnN0M3tmaWxsOiNmZmY7fSYjeGE7CTwvc3R5bGU+JiN4YTsJPHBhdGggY2xhc3M9InN0MiIgZD0iTTAgMGgyMHY3SDB6Ii8+JiN4YTsJPHBhdGggY2xhc3M9InN0MSIgZD0iTTE4IDBoMnY3aC0yeiIvPiYjeGE7CTxwYXRoIGNsYXNzPSJzdDAiIGQ9Ik0xOCA3bDItN2gtMnoiLz4mI3hhOwk8cGF0aCBjbGFzcz0ic3QxIiBkPSJNMCAwaDJ2N0gweiIvPiYjeGE7CTxnIGNsYXNzPSJzdDMiPiYjeGE7CQk8cGF0aCBkPSJNNCAzaDZ2MUg0eiIvPiYjeGE7CQk8cmVjdCB4PSIxMyIgeT0iMiIgd2lkdGg9IjMiIGhlaWdodD0iMyIgcng9IjEuNSIvPiYjeGE7CTwvZz4mI3hhOwk8cGF0aCBjbGFzcz0ic3QyIiBkPSJNMCA5aDIwdjdIMHoiLz4mI3hhOwk8cGF0aCBjbGFzcz0ic3QxIiBkPSJNMTggOWgydjdoLTJ6Ii8+JiN4YTsJPHBhdGggY2xhc3M9InN0MCIgZD0iTTE4IDE2bDItN2gtMnoiLz4mI3hhOwk8cGF0aCBjbGFzcz0ic3QxIiBkPSJNMCA5aDJ2N0gweiIvPiYjeGE7CTxnIGNsYXNzPSJzdDMiPiYjeGE7CQk8cGF0aCBkPSJNNCAxMmg2djFINHoiLz4mI3hhOwkJPHJlY3QgeD0iMTMiIHk9IjExIiB3aWR0aD0iMyIgaGVpZ2h0PSIzIiByeD0iMS41Ii8+JiN4YTsJPC9nPiYjeGE7PC9zdmc+;" vertex="1" parent="hTDBvnxvtVP5g7cgl2-N-6">
          <mxGeometry width="30" height="24" relative="1" as="geometry">
            <mxPoint x="15" y="18" as="offset" />
          </mxGeometry>
        </mxCell>
        <mxCell id="hTDBvnxvtVP5g7cgl2-N-8" value="Eventarc" style="sketch=0;html=1;verticalAlign=top;labelPosition=center;verticalLabelPosition=bottom;align=center;spacingTop=-6;fontSize=11;fontStyle=1;fontColor=#999999;shape=image;aspect=fixed;imageAspect=0;image=data:image/svg+xml,PHN2ZyB4bWxucz0iaHR0cDovL3d3dy53My5vcmcvMjAwMC9zdmciIGlkPSJzdmc4MzgiIHZlcnNpb249IjEuMSIgdmlld0JveD0iMCAwIDE2NC4zNDc1OCAxNjQuMzQ3NiIgaGVpZ2h0PSIxNjQuMzQ3Nm1tIiB3aWR0aD0iMTY0LjM0NzU4bW0iPiYjeGE7ICA8cGF0aCBkPSJtIDEyMy43NzczOCwzMy41NDQ5NDIgLTg5LjgwODYwMSw4OS4zMjYxNjggOC4xMDkzNzUsOC4xNTQzIDg5LjgwODU5NiwtODkuMzI2MTY3IHogTSAxNC41MDgxOTcsMzUuNTkxNzMzIEMgNS4zNjEyNTIsNDguODM4NjEzIDAsNjQuODkxMTUzIDAsODIuMTczNzkzIGMgMWUtNiw5LjI1NTM0IDEuNTYwNDAxLDE4LjE0NzQzNyA0LjM5MzUzLDI2LjQ1NTIyNyAzLjA2OTg2MywtMi40MzY5NiA2LjUxMjg4MywtNC4zNjI1NSAxMC4xOTYyNzcsLTUuNzAyNDkgLTIuMDA0OTk2LC02LjU2MDIwNyAtMy4wODk3MzIsLTEzLjUyNjU2NyAtMy4wODk3MzIsLTIwLjc1MjczNyAwLC0xNC45NzI0NyA0LjYyOTY1LC0yOC44NDEyNyAxMi41Mzg3NywtNDAuMjU2MjEgeiBNIDQxLjUwNzc0NSwyNC4zMjQ5NjYgYyAxMS40OTIxMTEsLTguMDgzNDczIDI1LjUxMzkxOSwtMTIuODI0ODk0IDQwLjY2NjA1MSwtMTIuODI0ODk0IDcuMjIxOTksMCAxNC4xODYwMSwxLjA3OTcyMiAyMC43NDI5MjQsMy4wODI0OTkgMS4zOTExMSwtMy42ODE2MDggMy4zNjk2LC03LjExMzQ3NCA1Ljg1ODU1LC0xMC4xNjIxNyBDIDEwMC40MjgzMywxLjU1NzMzMiA5MS40ODAwOTYsMCA4Mi4xNzM3OTYsMCA2NC42NzY0MzcsMCA0OC40Mzk5NCw1LjQ5NTI5MiAzNS4wOTkzMiwxNC44NTA4NjEgWiBNIDEyMi43OTAzNiwxNDAuMDU3NCBjIC0xMS40ODI4Niw4LjA2MjMgLTI1LjQ4NjE3NCwxMi43OTAxMiAtNDAuNjE2NTY0LDEyLjc5MDExIC03LjI4NTE4OSwwIC0xNC4zMDc5NSwtMS4wOTg1OCAtMjAuOTE1MDAzLC0zLjEzNTIxIC0xLjM0OTc5LDMuNjc4NzYgLTMuMjg0MjYyLDcuMTE1NjUgLTUuNzI4ODUxLDEwLjE3ODE5IDguMzYxNTE2LDIuODc0MjYgMTcuMzE4NTU5LDQuNDU3MDkgMjYuNjQzODU0LDQuNDU3MSAxNy40OTQ3OSwwIDMzLjcyOTA5NCwtNS40OTM2OCA0Ny4wNjg2MDQsLTE0Ljg0Njc0IHogbSAyNy4xMzQyMiwtMTEuNDI1MTUgYyA5LjA5NTAzLC0xMy4yMjMwNyAxNC40MjMwMSwtMjkuMjI5NTI3IDE0LjQyMzAxLC00Ni40NTg0NTcgMCwtOS4yNTU0MSAtMS41MzkxNywtMTguMTU3MiAtNC4zNzIzNCwtMjYuNDY1MDUgLTMuMDUxMzIsMi40ODkxOCAtNi40ODYwMiw0LjQ2NzE3IC0xMC4xNzA0NCw1Ljg1NzAxIDEuOTc2NTMsNi41MTc2NSAzLjA0MjcxLDEzLjQzNTM4IDMuMDQyNzEsMjAuNjA4MDQgMCwxNS4wODgxNCAtNC43MDE0NSwyOS4wNTU0NzcgLTEyLjcyMjY0LDQwLjUyMDI5NyB6IiBzdHlsZT0iY29sb3I6IzAwMDAwMDtvcGFjaXR5OjE7ZmlsbDojNDI4NWY0O2ZpbGwtb3BhY2l0eToxOy1pbmtzY2FwZS1zdHJva2U6bm9uZSIvPiYjeGE7ICA8cGF0aCBkPSJNIDEwNi4wMDc4LDgyLjY0Njc2MyBBIDIzLjc1ODk3NiwyMy43NTg5NzYgMCAwIDEgODIuMjQ4ODE2LDEwNi40MDU3NCAyMy43NTg5NzYsMjMuNzU4OTc2IDAgMCAxIDU4LjQ4OTg0LDgyLjY0Njc2MyAyMy43NTg5NzYsMjMuNzU4OTc2IDAgMCAxIDgyLjI0ODgxNiw1OC44ODc3ODMgMjMuNzU4OTc2LDIzLjc1ODk3NiAwIDAgMSAxMDYuMDA3OCw4Mi42NDY3NjMgWiIgc3R5bGU9ImNvbG9yOiMwMDAwMDA7b3BhY2l0eToxO2ZpbGw6IzY2OWRmNjtmaWxsLW9wYWNpdHk6MTtzdHJva2Utd2lkdGg6MTEuNTtzdHJva2UtbGluZWNhcDpyb3VuZDstaW5rc2NhcGUtc3Ryb2tlOm5vbmUiLz4mI3hhOyAgPHBhdGggZD0ibSAxMzYuODc4OTQsMTE3LjEzNDc4IGMgLTExLjA1Nzc1LDAgLTIwLjE0NDU0LDkuMDg4NzQgLTIwLjE0NDUzLDIwLjE0NjQ5IDAsMTEuMDU3NzQgOS4wODY3OSwyMC4xNDQ1MyAyMC4xNDQ1MywyMC4xNDQ1MyAxMS4wNTc3MywwIDIwLjE0NjQ4LC05LjA4NjggMjAuMTQ2NDgsLTIwLjE0NDUzIDFlLTUsLTExLjA1Nzc0IC05LjA4ODc0LC0yMC4xNDY0OCAtMjAuMTQ2NDgsLTIwLjE0NjQ5IHogbSAwLDExLjUgYyA0Ljg0MjY4LDAgOC42NDY0OSwzLjgwMzggOC42NDY0OCw4LjY0NjQ5IDAsNC44NDI2OCAtMy44MDM4LDguNjQ0NTMgLTguNjQ2NDgsOC42NDQ1MyAtNC44NDI2OCwwIC04LjY0NDUzLC0zLjgwMTg1IC04LjY0NDUzLC04LjY0NDUzIDAsLTQuODQyNjkgMy44MDE4NCwtOC42NDY0OSA4LjY0NDUzLC04LjY0NjQ5IHogTSAyNy4wOTU3MzIsMTE2Ljk3NDYzIGMgLTExLjA1NzczNiwwIC0yMC4xNDQ1MjgsOS4wODY3OSAtMjAuMTQ0NTMxLDIwLjE0NDUzIC01ZS02LDExLjA1Nzc0IDkuMDg2NzksMjAuMTQ2NDggMjAuMTQ0NTMxLDIwLjE0NjQ4IDExLjA1Nzc0MiwwIDIwLjE0NjQ4OSwtOS4wODg3NCAyMC4xNDY0ODUsLTIwLjE0NjQ4IC0zZS02LC0xMS4wNTc3NCAtOS4wODg3NDgsLTIwLjE0NDUzIC0yMC4xNDY0ODUsLTIwLjE0NDUzIHogbSAwLDExLjUgYyA0Ljg0MjY4MiwwIDguNjQ2NDgzLDMuODAxODUgOC42NDY0ODUsOC42NDQ1MyAyZS02LDQuODQyNjggLTMuODAzOCw4LjY0NjQ4IC04LjY0NjQ4NSw4LjY0NjQ4IC00Ljg0MjY4NCwwIC04LjY0NDUzMywtMy44MDM4IC04LjY0NDUzMSwtOC42NDY0OCAxMGUtNywtNC44NDI2OCAzLjgwMTg0OSwtOC42NDQ1MyA4LjY0NDUzMSwtOC42NDQ1MyB6IE0gMTM2Ljk0MTQ0LDcuMzQzNzcgYyAtMTEuMDU3NzQsM2UtNiAtMjAuMTQ2NDksOS4wODY3OTUgLTIwLjE0NjQ5LDIwLjE0NDUzMSAwLDExLjA1Nzc0MiA5LjA4ODc1LDIwLjE0NjQ4MiAyMC4xNDY0OSwyMC4xNDY0ODIgMTEuMDU3NzQsMWUtNSAyMC4xNDQ1MywtOS4wODg3NCAyMC4xNDQ1MywtMjAuMTQ2NDgyIDAsLTExLjA1Nzc0MSAtOS4wODY3OSwtMjAuMTQ0NTM2IC0yMC4xNDQ1MywtMjAuMTQ0NTMxIHogbSAwLDExLjUgYyA0Ljg0MjY4LC0yZS02IDguNjQ0NTMsMy44MDE4NDcgOC42NDQ1Myw4LjY0NDUzMSAwLDQuODQyNjg1IC0zLjgwMTg1LDguNjQ2NDgyIC04LjY0NDUzLDguNjQ2NDgyIC00Ljg0MjY4LDAgLTguNjQ2NDksLTMuODAzNzk5IC04LjY0NjQ5LC04LjY0NjQ4MiAwLC00Ljg0MjY4MiAzLjgwMzgxLC04LjY0NDUzIDguNjQ2NDksLTguNjQ0NTMxIHogTSAyNy4wODk4NzMsNy40Mzc1MiBjIC0xMS4wNTc3MzksLTFlLTYgLTIwLjE0NDUzMSw5LjA4Njc5MiAtMjAuMTQ0NTMxLDIwLjE0NDUzMSAyZS02LDExLjA1Nzc0MiA5LjA4Njc5NCwyMC4xNDQ1MzIgMjAuMTQ0NTMxLDIwLjE0NDUzMiAxMS4wNTc3MzYsMCAyMC4xNDY0ODIsLTkuMDg2OCAyMC4xNDY0ODQsLTIwLjE0NDUzMiAwLC0xMS4wNTc3MzggLTkuMDg4NzQ2LC0yMC4xNDQ1MzEgLTIwLjE0NjQ4NCwtMjAuMTQ0NTMxIHogbSAwLDExLjUgYyA0Ljg0MjY4MywwIDguNjQ2NDg0LDMuODAxODQ4IDguNjQ2NDg0LDguNjQ0NTMxIC0xMGUtNyw0Ljg0MjY4MiAtMy44MDM4MDIsOC42NDQ1MzIgLTguNjQ2NDg0LDguNjQ0NTMyIC00Ljg0MjY4MywwIC04LjY0NDUzLC0zLjgwMTg0OSAtOC42NDQ1MzEsLTguNjQ0NTMyIDAsLTQuODQyNjgzIDMuODAxODQ4LC04LjY0NDUzMSA4LjY0NDUzMSwtOC42NDQ1MzEgeiIgc3R5bGU9ImNvbG9yOiMwMDAwMDA7b3BhY2l0eToxO2ZpbGw6I2FlY2JmYTtmaWxsLW9wYWNpdHk6MTtzdHJva2UtbGluZWNhcDpyb3VuZDstaW5rc2NhcGUtc3Ryb2tlOm5vbmUiLz4mI3hhOzwvc3ZnPg==;" vertex="1" parent="1">
          <mxGeometry x="194" y="380" width="42" height="42" as="geometry" />
        </mxCell>
        <mxCell id="hTDBvnxvtVP5g7cgl2-N-9" value="" style="endArrow=classic;html=1;rounded=0;exitX=0.5;exitY=1;exitDx=0;exitDy=0;entryX=0.5;entryY=0;entryDx=0;entryDy=0;" edge="1" parent="1" source="hTDBvnxvtVP5g7cgl2-N-4" target="hTDBvnxvtVP5g7cgl2-N-8">
          <mxGeometry width="50" height="50" relative="1" as="geometry">
            <mxPoint x="390" y="380" as="sourcePoint" />
            <mxPoint x="440" y="330" as="targetPoint" />
          </mxGeometry>
        </mxCell>
        <mxCell id="hTDBvnxvtVP5g7cgl2-N-10" value="" style="edgeStyle=elbowEdgeStyle;elbow=horizontal;endArrow=classic;html=1;curved=0;rounded=0;endSize=8;startSize=8;exitX=1;exitY=0.5;exitDx=0;exitDy=0;entryX=0.25;entryY=0;entryDx=0;entryDy=0;" edge="1" parent="1" source="hTDBvnxvtVP5g7cgl2-N-8" target="hTDBvnxvtVP5g7cgl2-N-1">
          <mxGeometry width="50" height="50" relative="1" as="geometry">
            <mxPoint x="390" y="380" as="sourcePoint" />
            <mxPoint x="440" y="330" as="targetPoint" />
            <Array as="points">
              <mxPoint x="323" y="440" />
            </Array>
          </mxGeometry>
        </mxCell>
        <mxCell id="hTDBvnxvtVP5g7cgl2-N-11" value="" style="edgeStyle=elbowEdgeStyle;elbow=vertical;endArrow=classic;html=1;curved=0;rounded=0;endSize=8;startSize=8;exitX=0.75;exitY=0;exitDx=0;exitDy=0;entryX=0.5;entryY=1;entryDx=0;entryDy=0;" edge="1" parent="1" source="hTDBvnxvtVP5g7cgl2-N-1" target="hTDBvnxvtVP5g7cgl2-N-6">
          <mxGeometry width="50" height="50" relative="1" as="geometry">
            <mxPoint x="390" y="380" as="sourcePoint" />
            <mxPoint x="440" y="330" as="targetPoint" />
          </mxGeometry>
        </mxCell>
        <mxCell id="hTDBvnxvtVP5g7cgl2-N-13" value="" style="endArrow=classic;html=1;rounded=0;entryX=0.453;entryY=0.033;entryDx=0;entryDy=0;entryPerimeter=0;" edge="1" parent="1" source="hTDBvnxvtVP5g7cgl2-N-3" target="hTDBvnxvtVP5g7cgl2-N-4">
          <mxGeometry width="50" height="50" relative="1" as="geometry">
            <mxPoint x="390" y="380" as="sourcePoint" />
            <mxPoint x="440" y="330" as="targetPoint" />
          </mxGeometry>
        </mxCell>
        <mxCell id="hTDBvnxvtVP5g7cgl2-N-15" value="json" style="whiteSpace=wrap;html=1;shape=mxgraph.basic.document" vertex="1" parent="1">
          <mxGeometry x="220" y="220" width="30" height="40" as="geometry" />
        </mxCell>
        <mxCell id="hTDBvnxvtVP5g7cgl2-N-16" value="csv" style="whiteSpace=wrap;html=1;shape=mxgraph.basic.document" vertex="1" parent="1">
          <mxGeometry x="500" y="350" width="30" height="40" as="geometry" />
        </mxCell>
      </root>
    </mxGraphModel>
  </diagram>
</mxfile>
